<svg width="41" height="47" viewBox="0 0 41 47" fill="none" xmlns="http://www.w3.org/2000/svg">
<path d="M21.121 1.45967C21.4488 1.56429 21.6014 1.73021 21.5788 1.95746C21.5729 2.01821 21.5901 2.07277 21.6304 2.12115L21.9582 2.52108C21.9891 2.56046 21.9944 2.60265 21.9742 2.64765C21.8371 2.94465 21.9244 3.21127 21.8104 3.49477C21.7201 3.71864 21.6245 3.94196 21.5236 4.16471C21.5039 4.21092 21.4995 4.26211 21.5111 4.31152C21.5764 4.58377 21.5135 4.84083 21.3223 5.08271C21.2879 5.12546 21.2843 5.1699 21.3116 5.21602C21.352 5.2869 21.3567 5.35439 21.3258 5.41852C21.2807 5.51077 21.2599 5.50683 21.2635 5.40671C21.2635 5.38533 21.2653 5.35777 21.2689 5.32402C21.2714 5.30741 21.2675 5.29049 21.2581 5.27629C21.2487 5.26208 21.2342 5.25151 21.2174 5.24644C21.2005 5.24138 21.1822 5.24216 21.1659 5.24864C21.1496 5.25512 21.1362 5.26688 21.1281 5.28183L20.2144 6.8394C20.1811 6.89677 20.1348 6.94233 20.0754 6.97608C19.9329 7.05708 19.8955 7.16733 19.9632 7.30683C19.9822 7.34283 19.9745 7.37265 19.94 7.39627C18.116 8.6934 16.1786 9.80546 14.1278 10.7325C11.9155 11.7331 9.43422 12.3525 7.44457 10.6751C7.41647 10.6517 7.38069 10.6382 7.34329 10.6369C7.30589 10.6357 7.26917 10.6467 7.23938 10.6682C7.2096 10.6896 7.18856 10.7202 7.17986 10.7547C7.17116 10.7892 7.17532 10.8254 7.19163 10.8573C7.26467 10.9991 6.43283 11.3788 6.29389 11.4783C6.26984 11.496 6.24099 11.5068 6.21071 11.5094C6.18043 11.5121 6.14997 11.5066 6.12288 11.4935C5.13607 11.0143 5.06482 12.5043 4.25435 12.0926C4.18429 12.0566 4.15282 12.0763 4.15994 12.1516L4.1671 12.2343C3.04669 11.8682 -0.410742 10.6228 0.880664 8.84585C1.79623 7.58698 4.51975 8.64335 5.63125 9.06354C5.7215 9.09729 5.74763 9.07198 5.70963 8.9876C4.76379 6.91535 5.65085 4.74185 7.53719 3.53866C7.95401 3.27373 8.15707 3.56398 8.21585 3.9251C8.33104 4.6316 8.44623 5.3336 8.56141 6.0311C8.56419 6.04573 8.57186 6.05913 8.5833 6.06931C8.59474 6.07949 8.60934 6.0859 8.62493 6.08761C8.64052 6.08931 8.65626 6.08621 8.66985 6.07877C8.68343 6.07133 8.69413 6.05994 8.70035 6.04629C9.76553 3.63654 11.8906 2.88729 14.2026 1.86466C15.3426 1.36066 16.4143 0.757664 17.4178 0.0556637C17.4327 0.0453185 17.4505 0.0391271 17.4689 0.0377834C17.4874 0.0364398 17.5059 0.0399968 17.5224 0.0480561C17.5388 0.0561154 17.5526 0.0683581 17.5621 0.0834123C17.5717 0.0984666 17.5766 0.115737 17.5763 0.133289C17.5573 1.29879 17.3293 2.42435 16.8923 3.50998C16.8863 3.52392 16.8855 3.5394 16.8901 3.55382C16.8947 3.56825 16.9043 3.58076 16.9175 3.58925C16.9306 3.59774 16.9464 3.60171 16.9622 3.60049C16.9781 3.59927 16.993 3.59293 17.0045 3.58254C18.1624 2.53291 19.5345 1.82529 21.121 1.45967Z" fill="#974F4C"/>
<path d="M26.0872 1.59128C26.2142 1.87928 26.4998 2.02384 26.944 2.02496C27.0081 2.02496 27.0609 2.04803 27.1025 2.09415C27.302 2.31353 27.4961 2.45359 27.5727 2.75396C28.0857 4.76209 28.442 6.17453 27.7972 8.1894C26.8674 11.102 24.3433 11.7821 21.5129 12.2681C21.0926 12.3407 20.7541 12.5381 20.494 12.8199C19.2881 14.126 17.7331 15.5199 15.7239 15.0356C15.2305 14.9175 14.9152 14.8078 14.4004 14.9748C13.8316 15.1593 13.258 15.3264 12.6797 15.476C12.6227 15.4907 12.5758 15.5199 12.539 15.5638C12.3502 15.7888 12.1079 15.9362 11.8122 16.0059C11.7457 16.0217 11.6947 16.0565 11.659 16.1105L11.1745 16.8378C11.1532 16.8705 11.1514 16.9042 11.1692 16.9391C11.1941 16.9863 11.285 17.2412 11.13 17.2243L10.7043 17.2884C9.18546 17.6012 7.64531 17.7322 6.08375 17.6816C6.01962 17.6793 5.96974 17.7041 5.93412 17.7558C5.85693 17.8672 5.81121 18.0191 5.79696 18.2115L4.94194 19.3168C4.93232 19.3293 4.92641 19.344 4.92485 19.3593C4.92328 19.3747 4.92611 19.3902 4.93303 19.4042C4.93995 19.4181 4.95071 19.4301 4.96419 19.4388C4.97767 19.4475 4.99336 19.4525 5.00962 19.4535L6.342 19.5278C6.35606 19.5283 6.36977 19.5321 6.38195 19.5388C6.39413 19.5455 6.40442 19.5549 6.41195 19.5662C6.41947 19.5774 6.42401 19.5903 6.42517 19.6036C6.42632 19.6169 6.42406 19.6302 6.41859 19.6425C6.19059 20.1533 5.86581 20.5976 5.44425 20.9756C5.43562 20.9833 5.42919 20.9929 5.42558 21.0036C5.42197 21.0142 5.4213 21.0256 5.42361 21.0366C5.42593 21.0476 5.43117 21.0578 5.43884 21.0663C5.4465 21.0749 5.45633 21.0814 5.46741 21.0853L6.23691 21.3621C6.30697 21.3868 6.31113 21.4194 6.24938 21.4599C5.24475 22.1265 5.22338 26.5461 5.01319 26.5461C4.49841 25.947 4.4325 25.3024 3.90168 24.8012C3.86029 24.762 3.80513 24.7385 3.74671 24.7354L2.96476 24.683C2.76882 24.4659 2.62869 24.2741 2.54437 24.1076C1.50294 22.077 0.791032 19.8967 0.408657 17.5668C0.368282 17.325 0.361158 17.1067 0.387283 16.9121C0.391769 16.8806 0.407146 16.8515 0.430998 16.8292C0.454851 16.8069 0.485831 16.7927 0.519093 16.7889L2.91666 16.4987C2.92576 16.4978 2.93431 16.4944 2.94124 16.4888C2.94818 16.4832 2.95319 16.4757 2.95566 16.4673C2.95813 16.4588 2.95794 16.4497 2.95512 16.4412C2.95231 16.4327 2.94699 16.4251 2.93982 16.4193C1.92629 15.6363 0.73285 13.6063 2.40723 12.8351C2.9131 12.6005 3.75563 12.533 4.38619 12.4402C4.4006 12.4382 4.41379 12.4318 4.42374 12.4218C4.4337 12.4119 4.43986 12.399 4.44128 12.3852C4.4427 12.3714 4.43929 12.3574 4.43159 12.3454C4.42389 12.3334 4.41232 12.324 4.39866 12.3187L4.1671 12.2343L4.15994 12.1516C4.15282 12.0763 4.18429 12.0566 4.25435 12.0926C5.06482 12.5043 5.13607 11.0143 6.12288 11.4935C6.14997 11.5066 6.18043 11.5121 6.21071 11.5094C6.24099 11.5068 6.26984 11.496 6.29389 11.4783C6.43283 11.3788 7.26467 10.9991 7.19163 10.8573C7.17532 10.8254 7.17116 10.7892 7.17986 10.7547C7.18856 10.7202 7.2096 10.6896 7.23938 10.6682C7.26917 10.6467 7.30589 10.6357 7.34329 10.6369C7.38069 10.6382 7.41647 10.6517 7.44457 10.6751C9.43422 12.3525 11.9155 11.7331 14.1278 10.7325C16.1786 9.80546 18.116 8.6934 19.94 7.39627C19.9745 7.37265 19.9822 7.34283 19.9632 7.30683C19.8955 7.16733 19.9329 7.05708 20.0754 6.97608C20.1348 6.94233 20.1811 6.89677 20.2144 6.8394L21.1281 5.28183C21.1362 5.26688 21.1496 5.25512 21.1659 5.24864C21.1822 5.24216 21.2005 5.24138 21.2174 5.24644C21.2342 5.25151 21.2487 5.26208 21.2581 5.27629C21.2675 5.29049 21.2714 5.30741 21.2689 5.32402C21.2653 5.35777 21.2635 5.38533 21.2635 5.40671C21.2599 5.50683 21.2807 5.51077 21.3258 5.41852C21.3567 5.35439 21.352 5.2869 21.3116 5.21602C21.2843 5.1699 21.2879 5.12546 21.3223 5.08271C21.5135 4.84083 21.5764 4.58377 21.5111 4.31152C21.4995 4.26211 21.5039 4.21092 21.5236 4.16471C21.6245 3.94196 21.7201 3.71864 21.8104 3.49477C21.9244 3.21127 21.8371 2.94465 21.9742 2.64765C21.9944 2.60265 21.9891 2.56046 21.9582 2.52108L21.6304 2.12115C21.5901 2.07277 21.5729 2.01821 21.5788 1.95746C21.6014 1.73021 21.4488 1.56429 21.121 1.45967C22.8061 1.11992 24.4615 1.16378 26.0872 1.59128Z" fill="#844042"/>
<path d="M26.0872 1.59128C29.5446 2.38609 32.0989 4.73846 33.6272 7.69496C33.6326 7.7061 33.6417 7.71521 33.653 7.72095C33.6644 7.72669 33.6775 7.72877 33.6904 7.72689C33.7033 7.72501 33.7153 7.71926 33.7248 7.71049C33.7343 7.70171 33.7406 7.69036 33.743 7.67809C34.329 4.17653 36.511 8.06791 36.7533 9.06691C36.4849 9.54166 36.4683 10.1289 36.7034 10.8287C36.7135 10.8577 36.7168 10.8885 36.7131 10.9188C36.7094 10.9491 36.6988 10.9782 36.682 11.0042C36.5728 11.1774 36.5253 11.3647 36.5395 11.5661C36.5422 11.5984 36.5359 11.6309 36.5212 11.6602C36.5065 11.6895 36.484 11.7147 36.4558 11.7332C36.0853 11.9728 35.7647 12.069 35.2784 12.02C33.6664 11.853 33.3333 12.8165 32.1808 13.5708C32.1321 13.6035 32.1007 13.6473 32.0864 13.7025C31.9784 14.1153 31.9896 14.3471 32.1203 14.3977L30.2998 17.2817C30.263 17.3413 30.2215 17.3447 30.1752 17.2918C29.4751 16.4936 29.199 15.3782 29.0352 14.3808C29.0333 14.3706 29.028 14.361 29.0199 14.3537C29.0119 14.3465 29.0016 14.3419 28.9908 14.3407C28.9799 14.3396 28.9691 14.3419 28.96 14.3473C28.951 14.3528 28.9442 14.361 28.9407 14.3707C28.233 16.1482 27.2005 17.735 25.8432 19.1312C25.7458 19.2853 25.6175 19.3657 25.4584 19.3725C25.4273 19.3739 25.3965 19.3673 25.3694 19.3533C25.3423 19.3392 25.3201 19.3184 25.3052 19.2932C24.8528 18.5214 24.6366 17.6906 24.6568 16.8007C24.6576 16.7804 24.6515 16.7604 24.6395 16.7435C24.6275 16.7266 24.6102 16.7138 24.59 16.7068C24.5698 16.6999 24.5478 16.6992 24.5271 16.7049C24.5065 16.7105 24.4883 16.7222 24.4751 16.7383C23.6433 17.7289 21.2564 20.1741 19.8938 20.3107L20.478 17.7373L20.7826 15.8338C20.7859 15.8109 20.7809 15.7874 20.7684 15.7675C20.7559 15.7475 20.7366 15.7321 20.7139 15.724C20.6911 15.7159 20.6662 15.7155 20.6433 15.7229C20.6205 15.7303 20.6011 15.745 20.5884 15.7646C19.4971 17.3857 18.0353 18.6001 16.203 19.4079L15.4923 19.6155C15.4657 19.6234 15.4373 19.6242 15.4103 19.618C15.3832 19.6118 15.3585 19.5987 15.3387 19.5801C15.3189 19.5615 15.3048 19.5382 15.298 19.5126C15.2912 19.487 15.2918 19.4602 15.2999 19.4349L15.9465 17.3728C15.9509 17.3597 15.9509 17.3458 15.9466 17.3328C15.9422 17.3197 15.9337 17.3083 15.9221 17.2998C15.9105 17.2914 15.8965 17.2865 15.8817 17.2857C15.867 17.2848 15.8523 17.2881 15.8396 17.2952C14.4787 18.0782 11.8817 19.3725 10.2892 19.337C10.0707 19.3325 10.0125 19.2386 10.1147 19.0552L11.13 17.2243C11.285 17.2412 11.1941 16.9863 11.1692 16.9391C11.1514 16.9042 11.1532 16.8705 11.1745 16.8378L11.659 16.1105C11.6947 16.0565 11.7457 16.0217 11.8122 16.0059C12.1079 15.9362 12.3502 15.7888 12.539 15.5638C12.5758 15.5199 12.6227 15.4907 12.6797 15.476C13.258 15.3264 13.8316 15.1593 14.4004 14.9748C14.9152 14.8078 15.2305 14.9175 15.7239 15.0356C17.7331 15.5199 19.2881 14.126 20.494 12.8199C20.7541 12.5381 21.0926 12.3407 21.5129 12.2681C24.3433 11.7821 26.8674 11.102 27.7972 8.1894C28.442 6.17453 28.0857 4.76209 27.5727 2.75396C27.4961 2.45359 27.302 2.31353 27.1025 2.09415C27.0609 2.04803 27.0081 2.02496 26.944 2.02496C26.4998 2.02384 26.2142 1.87928 26.0872 1.59128Z" fill="#77333A"/>
<path d="M36.7533 9.06691C37.1606 10.5542 37.1309 12.006 36.6642 13.4223C36.6589 13.4381 36.6592 13.455 36.6649 13.4706C36.6707 13.4861 36.6816 13.4995 36.6961 13.5087C36.7106 13.5178 36.7279 13.5222 36.7452 13.5213C36.7626 13.5203 36.7792 13.514 36.7925 13.5033L37.7793 12.7338C37.841 12.6855 37.8974 12.6911 37.9485 12.7507C38.2014 13.0466 38.3689 13.3014 38.4508 13.5152C39.573 16.412 39.9114 19.4754 39.4661 22.7053C39.3498 23.5468 39.1942 24.2167 38.9994 24.7151C37.6225 24.0975 37.1968 25.8002 36.7978 26.6C36.6149 26.9634 36.4938 26.946 36.4344 26.5477C36.2705 25.434 36.1583 24.1565 35.8876 23.1272C35.58 21.9583 35.1436 20.8552 34.5784 19.818C34.5047 19.6819 34.5297 19.5643 34.6532 19.4653L35.7789 18.5557C35.8359 18.5107 35.8312 18.4719 35.7647 18.4393C33.9139 17.5483 32.9485 16.2 32.1203 14.3977C31.9896 14.3471 31.9784 14.1153 32.0864 13.7025C32.1007 13.6473 32.1321 13.6035 32.1808 13.5708C33.3333 12.8165 33.6664 11.853 35.2784 12.02C35.7647 12.069 36.0853 11.9728 36.4558 11.7332C36.484 11.7147 36.5065 11.6895 36.5212 11.6602C36.5359 11.6309 36.5422 11.5984 36.5395 11.5661C36.5253 11.3647 36.5728 11.1774 36.682 11.0042C36.6988 10.9782 36.7094 10.9491 36.7131 10.9188C36.7168 10.8885 36.7135 10.8577 36.7034 10.8287C36.4683 10.1289 36.4849 9.54166 36.7533 9.06691Z" fill="#66222C"/>
<path d="M32.1203 14.3977C32.9485 16.2 33.9139 17.5483 35.7647 18.4393C35.8312 18.4719 35.8359 18.5107 35.7789 18.5557L34.6532 19.4653C34.5297 19.5643 34.5047 19.6819 34.5784 19.818C35.1436 20.8552 35.58 21.9583 35.8876 23.1272C36.1583 24.1565 36.2705 25.434 36.4344 26.5477C36.4938 26.946 36.6149 26.9634 36.7978 26.6C37.1968 25.8002 37.6225 24.0975 38.9994 24.7151C42.5512 27.1552 39.5035 32.7425 35.3318 31.6794C35.278 31.6656 35.2208 31.6698 35.1698 31.6913C35.1189 31.7128 35.0773 31.7503 35.0522 31.7975C33.0732 35.4678 29.3415 37.7072 25.1859 38.6859C25.4768 38.4924 25.9227 38.3124 26.5236 38.1459C27.1066 37.985 27.7485 37.6875 28.4491 37.2532C29.8598 36.3774 30.7522 35.2805 31.2047 33.7736C32.7918 33.2336 34.142 32.3274 34.1473 30.5944C34.1473 30.5404 34.1188 30.5128 34.0618 30.5117L31.2884 30.461L31.1869 27.9298C31.2403 27.2289 31.2391 26.6996 31.1833 26.3419C31.1156 25.9166 30.9517 25.5482 30.6917 25.2366C30.4043 24.6122 30.1353 24.0451 29.8848 23.5355C29.541 22.8386 29.1313 22.9297 28.4544 23.0023C28.3998 23.0079 28.3535 23.0293 28.3155 23.0664C28.0465 23.3279 27.1648 23.4916 26.9689 23.0529C26.8388 22.7626 27.0846 22.4319 26.7444 22.1619C28.6397 21.7771 29.9827 22.5534 31.5128 23.5423C31.6684 23.6424 31.8519 23.6846 32.0632 23.6688C32.1238 23.6632 32.1624 23.6328 32.179 23.5777L32.2271 23.4191L32.3928 23.4191C32.4557 23.4191 32.4872 23.3893 32.4872 23.3296C32.4605 21.411 31.9511 19.3843 31.6465 17.6293C31.6132 17.4369 31.5467 17.4256 31.447 17.5955C31.1691 18.0736 30.9387 18.5737 30.7558 19.0957C30.7515 19.108 30.7444 19.1193 30.735 19.1288C30.7256 19.1383 30.7141 19.1458 30.7013 19.1508C30.6884 19.1557 30.6746 19.158 30.6607 19.1576C30.6467 19.1571 30.633 19.1538 30.6205 19.148L27.913 17.8925C27.89 17.8818 27.865 17.8755 27.8394 17.8741C27.8139 17.8727 27.7882 17.8762 27.7641 17.8844C27.74 17.8926 27.7179 17.9053 27.6991 17.9218C27.6803 17.9382 27.6652 17.9581 27.6547 17.9803C27.3827 18.5506 27.0146 19.0569 26.5503 19.499C26.5271 19.521 26.4988 19.5373 26.4678 19.5467C26.4368 19.5561 26.404 19.5583 26.3722 19.553C26.1596 19.5193 25.9833 19.3787 25.8432 19.1312C27.2005 17.735 28.233 16.1482 28.9407 14.3707C28.9442 14.361 28.951 14.3528 28.96 14.3473C28.9691 14.3419 28.9799 14.3396 28.9908 14.3407C29.0016 14.3419 29.0119 14.3465 29.0199 14.3537C29.028 14.361 29.0333 14.3706 29.0352 14.3808C29.199 15.3782 29.4751 16.4936 30.1752 17.2918C30.2215 17.3447 30.263 17.3413 30.2998 17.2817L32.1203 14.3977ZM38.1302 25.574C37.3304 25.8862 36.9296 26.5983 36.7426 27.356C36.5858 27.9872 35.9588 29.7624 36.5128 30.2417C36.7622 30.4565 37.027 30.5072 37.3072 30.3935C38.7227 29.8198 39.4388 28.7595 39.4554 27.2126C39.4637 26.4476 39.0731 25.902 38.2834 25.5757C38.2323 25.5543 38.1812 25.5538 38.1302 25.574Z" fill="#FBA98B"/>
<path d="M20.478 17.7373L20.0185 17.5905C19.9615 17.5725 19.9116 17.5831 19.8688 17.6225C18.8868 18.5293 17.8032 19.3089 16.618 19.9614C16.3295 20.1211 16.0362 20.1245 15.7381 19.9715C15.7282 19.9663 15.72 19.9586 15.7145 19.9492C15.709 19.9399 15.7063 19.9292 15.7069 19.9185C15.7074 19.9077 15.7112 19.8974 15.7176 19.8886C15.7241 19.8797 15.733 19.8728 15.7435 19.8686L16.3081 19.6425C16.325 19.6357 16.3401 19.6255 16.3522 19.6125C16.3643 19.5996 16.3732 19.5842 16.3782 19.5676C16.3832 19.5511 16.3841 19.5337 16.3809 19.5169C16.3777 19.5 16.3705 19.4841 16.3598 19.4703C16.3229 19.422 16.2707 19.4011 16.203 19.4079C18.0353 18.6001 19.4971 17.3857 20.5884 15.7646C20.6011 15.745 20.6205 15.7303 20.6433 15.7229C20.6662 15.7155 20.6911 15.7159 20.7139 15.724C20.7366 15.7321 20.7559 15.7475 20.7684 15.7675C20.7809 15.7874 20.7859 15.8109 20.7826 15.8338L20.478 17.7373Z" fill="#FBA98B"/>
<path d="M25.8432 19.1312C25.9833 19.3787 26.1596 19.5193 26.3722 19.553C26.404 19.5583 26.4368 19.5561 26.4678 19.5467C26.4988 19.5373 26.5271 19.521 26.5503 19.499C27.0146 19.0569 27.3827 18.5506 27.6547 17.9803C27.6652 17.9581 27.6803 17.9382 27.6991 17.9218C27.7179 17.9053 27.74 17.8926 27.7641 17.8844C27.7882 17.8762 27.8139 17.8727 27.8394 17.8741C27.865 17.8755 27.89 17.8818 27.913 17.8925L30.6205 19.148C30.633 19.1538 30.6467 19.1571 30.6607 19.1576C30.6746 19.158 30.6884 19.1557 30.7013 19.1508C30.7141 19.1458 30.7256 19.1383 30.735 19.1288C30.7444 19.1193 30.7515 19.108 30.7558 19.0957C30.9387 18.5737 31.1691 18.0736 31.447 17.5955C31.5467 17.4256 31.6132 17.4369 31.6465 17.6293C31.9511 19.3843 32.4605 21.411 32.4872 23.3296C32.4872 23.3893 32.4557 23.4191 32.3928 23.4191L32.2271 23.4191C31.837 21.5662 29.2417 20.2618 27.4534 20.0441C24.9649 19.7386 24.9133 22.2344 26.7444 22.1619C27.0846 22.4319 26.8388 22.7626 26.9689 23.0529C27.1648 23.4916 28.0465 23.3279 28.3155 23.0664C28.3535 23.0293 28.3998 23.0079 28.4544 23.0023C29.1313 22.9297 29.541 22.8386 29.8848 23.5355C30.1353 24.0451 30.4043 24.6122 30.6917 25.2366C29.9162 24.7528 29.2334 24.5582 28.6432 24.6527C26.2955 24.6375 25.7772 27.3273 26.4826 28.9507C27.5104 31.3115 30.3729 30.4526 30.6294 28.2032C30.8633 28.1492 31.0491 28.058 31.1869 27.9298L31.2884 30.461C29.9632 30.2957 28.8315 30.6028 27.8933 31.3824C27.3358 31.8448 27.1238 32.4523 27.5923 33.0378C28.4954 34.1651 29.8901 33.9204 31.2047 33.7736C30.7522 35.2805 29.8598 36.3774 28.4491 37.2532C27.7485 37.6875 27.1066 37.985 26.5236 38.1459C25.9227 38.3124 25.4768 38.4924 25.1859 38.6859L23.9568 39.0369C21.8816 39.1314 20.4905 39.258 17.8489 39.0842C17.84 39.02 17.8239 38.9846 17.7527 38.9694C12.7545 37.9569 8.89808 36.0112 6.41323 31.6912C6.38473 31.6406 6.3408 31.6226 6.28142 31.6372C2.32526 32.589 -0.339484 28.652 1.57358 25.493C1.8467 25.0408 2.31044 24.7708 2.96476 24.683L3.74671 24.7354C3.80513 24.7385 3.86029 24.762 3.90168 24.8012C4.4325 25.3024 4.49841 25.947 5.01319 26.5461C5.05238 26.6034 5.07137 26.6636 5.07018 26.7266C5.07018 26.784 5.09631 26.8284 5.14856 26.8599C5.21031 26.897 5.22872 26.9404 5.20378 26.9899C5.17647 27.0427 5.18596 27.0894 5.23227 27.1299C5.84146 27.6716 6.12646 28.4124 6.50052 28.9912C6.68577 29.2792 6.84965 29.579 6.99215 29.8907C7.13287 30.1995 7.4143 30.4577 7.59955 30.7631C7.6139 30.7865 7.63406 30.8063 7.65826 30.8207C7.68246 30.8351 7.71 30.8437 7.73849 30.8458L8.64871 30.9099C7.59243 31.5191 8.09298 33.1391 8.89276 33.6673C9.62901 34.1544 10.5303 34.3603 11.5967 34.2849C11.7582 34.6854 12.0634 34.9886 12.5122 35.1945C12.5633 35.2192 12.571 35.2524 12.5354 35.2941C12.0794 35.829 13.166 36.2559 13.4919 36.6103C13.5216 36.6429 13.5359 36.6806 13.5347 36.7234L13.5293 36.9056C13.5282 36.9945 13.5733 37.0316 13.6647 37.017L14.3719 36.9039C14.4324 36.8949 14.4871 36.9073 14.5357 36.9411C14.9751 37.2482 15.4169 37.2684 15.861 37.0018C15.9073 36.9737 15.9269 36.9338 15.9198 36.882C15.8105 36.1193 16.1567 35.3981 16.9582 34.7186C17.0841 35.2789 17.5057 35.802 18.2229 36.288C19.3582 36.9022 20.7137 37.0704 22.2895 36.7926C22.8714 36.6902 23.3108 36.4871 23.6076 36.1834C24.3273 35.8307 25.4316 34.8401 25.2642 33.9727C25.2405 33.8523 25.1668 33.8073 25.0433 33.8377C23.1885 34.2877 21.3936 34.4413 19.6586 34.2984L19.7245 34.2225C19.7318 34.2137 19.7361 34.203 19.7369 34.1919C19.7378 34.1807 19.735 34.1696 19.729 34.16C19.7231 34.1503 19.7142 34.1426 19.7035 34.1378C19.6929 34.133 19.681 34.1313 19.6693 34.133C19.4366 34.1724 19.2739 34.0993 19.1812 33.9137C19.1411 33.8339 19.1251 33.7452 19.1348 33.6574C19.1445 33.5695 19.1797 33.486 19.2365 33.4159L19.7334 32.8067C19.7785 32.7515 19.8379 32.7195 19.9115 32.7105C19.9721 32.7015 20.0261 32.6767 20.0736 32.6362C20.1116 32.6036 20.1295 32.5625 20.1271 32.513C20.12 32.2892 20.155 32.1131 20.2322 31.9849C20.7256 33.2927 23.4367 31.4516 21.8852 29.6814C21.732 29.5059 21.3401 29.2038 21.1691 29.4806L19.981 29.0857C19.9665 29.0807 19.9532 29.0727 19.9422 29.0624C19.9312 29.0521 19.9226 29.0396 19.9172 29.026C19.9118 29.0123 19.9096 28.9978 19.9108 28.9833C19.9119 28.9689 19.9165 28.9549 19.924 28.9423C20.063 28.7106 20.0962 28.467 20.0238 28.2116C20.0083 28.1554 20.0113 28.1002 20.0327 28.0462C20.136 27.7751 20.1609 27.5006 20.1075 27.2227C20.0398 26.8751 20.177 26.5545 20.1627 26.2086C20.1218 25.0796 20.2037 23.8174 19.9401 22.7188C19.778 22.0387 19.7673 21.2051 19.7584 20.5217C19.7584 20.4944 19.764 20.4674 19.775 20.4422C19.786 20.417 19.8022 20.3941 19.8225 20.3749L19.8938 20.3107C21.2564 20.1741 23.6433 17.7289 24.4751 16.7383C24.4883 16.7222 24.5065 16.7105 24.5271 16.7049C24.5478 16.6992 24.5698 16.6999 24.59 16.7068C24.6102 16.7138 24.6275 16.7266 24.6395 16.7435C24.6515 16.7604 24.6576 16.7804 24.6568 16.8007C24.6366 17.6906 24.8528 18.5214 25.3052 19.2932C25.3201 19.3184 25.3423 19.3392 25.3694 19.3533C25.3965 19.3673 25.4273 19.3739 25.4584 19.3725C25.6175 19.3657 25.7458 19.2853 25.8432 19.1312ZM2.5052 26.1529C1.36698 27.4843 2.23267 29.3608 3.58464 30.186C4.24014 30.5859 5.60813 30.6484 5.29463 29.5684C4.96688 28.4377 4.73176 27.4371 4.15998 26.3756C3.77166 25.6534 3.0752 25.4846 2.5052 26.1529Z" fill="#FFC7A7"/>
<path d="M11.13 17.2243L10.1147 19.0552C10.0125 19.2386 10.0707 19.3325 10.2892 19.337C11.8817 19.3725 14.4787 18.0782 15.8396 17.2952C15.8523 17.2881 15.867 17.2848 15.8817 17.2857C15.8965 17.2865 15.9105 17.2914 15.9221 17.2998C15.9337 17.3083 15.9422 17.3197 15.9466 17.3328C15.9509 17.3458 15.9509 17.3597 15.9465 17.3728L15.2999 19.4349C15.2918 19.4602 15.2912 19.487 15.298 19.5126C15.3048 19.5382 15.3189 19.5615 15.3387 19.5801C15.3585 19.5987 15.3832 19.6118 15.4103 19.618C15.4373 19.6242 15.4657 19.6234 15.4923 19.6155L16.203 19.4079C16.2707 19.4011 16.3229 19.422 16.3598 19.4703C16.3705 19.4841 16.3777 19.5 16.3809 19.5169C16.3841 19.5337 16.3832 19.5511 16.3782 19.5676C16.3732 19.5842 16.3643 19.5996 16.3522 19.6125C16.3401 19.6255 16.325 19.6357 16.3081 19.6425L15.7435 19.8686C15.733 19.8728 15.7241 19.8797 15.7176 19.8886C15.7112 19.8974 15.7074 19.9077 15.7069 19.9185C15.7063 19.9292 15.709 19.9399 15.7145 19.9492C15.72 19.9586 15.7282 19.9663 15.7381 19.9715C16.0362 20.1245 16.3295 20.1211 16.618 19.9614C17.8032 19.3089 18.8868 18.5293 19.8688 17.6225C19.9116 17.5831 19.9615 17.5725 20.0185 17.5905L20.478 17.7373L19.8938 20.3107L19.8225 20.3749C19.8022 20.3941 19.786 20.417 19.775 20.4422C19.764 20.4674 19.7584 20.4944 19.7584 20.5217C19.7673 21.2051 19.778 22.0387 19.9401 22.7188C20.2037 23.8174 20.1218 25.0796 20.1627 26.2086C20.177 26.5545 20.0398 26.8751 20.1075 27.2227C20.1609 27.5006 20.136 27.7751 20.0327 28.0462C20.0113 28.1002 20.0083 28.1554 20.0238 28.2116C20.0962 28.467 20.063 28.7106 19.924 28.9423C19.9165 28.9549 19.9119 28.9689 19.9108 28.9833C19.9096 28.9978 19.9118 29.0123 19.9172 29.026C19.9226 29.0396 19.9312 29.0521 19.9422 29.0624C19.9532 29.0727 19.9665 29.0807 19.981 29.0857L21.1691 29.4806C21.9226 30.4745 21.2332 31.4668 20.2322 31.9849C20.155 32.1131 20.12 32.2892 20.1271 32.513C20.1295 32.5625 20.1116 32.6036 20.0736 32.6362C20.0261 32.6767 19.9721 32.7015 19.9115 32.7105C19.8379 32.7195 19.7785 32.7515 19.7334 32.8067L19.2365 33.4159C19.1797 33.486 19.1445 33.5695 19.1348 33.6574C19.1251 33.7452 19.1411 33.8339 19.1812 33.9137C19.2739 34.0993 19.4366 34.1724 19.6693 34.133C19.681 34.1313 19.6929 34.133 19.7035 34.1378C19.7142 34.1426 19.7231 34.1503 19.729 34.16C19.735 34.1696 19.7378 34.1807 19.7369 34.1919C19.7361 34.203 19.7318 34.2137 19.7245 34.2225L19.6586 34.2984L17.0509 33.8479C17.0216 33.843 16.9915 33.8442 16.9628 33.8514C16.9341 33.8586 16.9073 33.8716 16.8844 33.8896C16.8615 33.9076 16.8431 33.9301 16.8303 33.9555C16.8175 33.9809 16.8107 34.0087 16.8104 34.0369C16.808 34.2607 16.8573 34.488 16.9582 34.7186C16.1567 35.3981 15.8105 36.1193 15.9198 36.882C15.9269 36.9338 15.9073 36.9737 15.861 37.0018C15.4169 37.2684 14.9751 37.2482 14.5357 36.9411C14.4871 36.9073 14.4324 36.8949 14.3719 36.9039L13.6647 37.017C13.5733 37.0316 13.5282 36.9945 13.5293 36.9056L13.5347 36.7234C13.5359 36.6806 13.5216 36.6429 13.4919 36.6103C13.166 36.2559 12.0794 35.829 12.5354 35.2941C12.571 35.2524 12.5633 35.2192 12.5122 35.1945C12.0634 34.9886 11.7582 34.6854 11.5967 34.2849C13.1784 34.1229 14.6533 32.9231 12.9308 31.5596C11.7243 30.6056 10.297 30.389 8.64871 30.9099L7.73849 30.8458C7.71 30.8437 7.68246 30.8351 7.65826 30.8207C7.63406 30.8063 7.6139 30.7865 7.59955 30.7631C7.4143 30.4577 7.13287 30.1995 6.99215 29.8907C6.84965 29.579 6.68577 29.2792 6.50052 28.9912C6.12646 28.4124 5.84146 27.6716 5.23227 27.1299C5.18596 27.0894 5.17647 27.0427 5.20378 26.9899C5.22872 26.9404 5.21031 26.897 5.14856 26.8599C5.09631 26.8284 5.07018 26.784 5.07018 26.7266C5.07137 26.6636 5.05238 26.6034 5.01319 26.5461C5.22338 26.5461 5.24475 22.1265 6.24938 21.4599C6.31113 21.4194 6.30697 21.3868 6.23691 21.3621L5.46741 21.0853C5.45633 21.0814 5.4465 21.0749 5.43884 21.0663C5.43117 21.0578 5.42593 21.0476 5.42361 21.0366C5.4213 21.0256 5.42197 21.0142 5.42558 21.0036C5.42919 20.9929 5.43562 20.9833 5.44425 20.9756C5.86581 20.5976 6.19059 20.1533 6.41859 19.6425C6.42406 19.6302 6.42632 19.6169 6.42517 19.6036C6.42401 19.5903 6.41947 19.5774 6.41195 19.5662C6.40442 19.5549 6.39413 19.5455 6.38195 19.5388C6.36977 19.5321 6.35606 19.5283 6.342 19.5278L5.00962 19.4535C4.99336 19.4525 4.97767 19.4475 4.96419 19.4388C4.95071 19.4301 4.93995 19.4181 4.93303 19.4042C4.92611 19.3902 4.92328 19.3747 4.92485 19.3593C4.92641 19.344 4.93232 19.3293 4.94194 19.3168L5.79696 18.2115C7.2184 18.2666 8.62915 18.203 10.0292 18.0208C10.0886 18.014 10.1468 18.0185 10.2038 18.0343C10.5689 18.1355 10.6419 17.5162 10.7043 17.2884L11.13 17.2243ZM14.1813 20.0289C12.4731 20.1504 9.79765 21.3806 9.39865 23.1272C9.38804 23.1736 9.39066 23.2219 9.40624 23.2671C9.42181 23.3123 9.44979 23.3528 9.48731 23.3844C9.52482 23.416 9.57052 23.4376 9.61973 23.4469C9.66894 23.4563 9.71989 23.4531 9.76737 23.4377C11.3812 22.9128 12.5069 21.5595 14.4467 22.172C15.3445 22.4555 16.0694 22.3425 16.2921 21.3519C16.5646 20.1318 15.1093 19.9631 14.1813 20.0289ZM11.757 30.0071C15.1539 31.9443 16.7641 25.9757 13.6042 24.7202C13.5543 24.035 12.0296 24.6425 11.5646 24.9429C10.3302 25.7411 9.91877 26.9713 10.4051 28.3516C10.7162 29.2314 11.1668 29.7832 11.757 30.0071Z" fill="#FED0B2"/>
<path d="M10.7043 17.2884C10.6419 17.5162 10.5689 18.1355 10.2038 18.0343C10.1468 18.0185 10.0886 18.014 10.0292 18.0208C8.62915 18.203 7.2184 18.2666 5.79696 18.2115C5.81121 18.0191 5.85693 17.8672 5.93412 17.7558C5.96974 17.7041 6.01962 17.6793 6.08375 17.6816C7.64531 17.7322 9.18546 17.6012 10.7043 17.2884Z" fill="#FBA98B"/>
<path d="M9.39865 23.1272C9.79765 21.3806 12.4731 20.1504 14.1813 20.0289C15.1093 19.9631 16.5646 20.1318 16.2921 21.3519C16.0694 22.3425 15.3445 22.4555 14.4467 22.172C12.5069 21.5595 11.3812 22.9128 9.76737 23.4377C9.71989 23.4531 9.66894 23.4563 9.61973 23.4469C9.57052 23.4376 9.52482 23.416 9.48731 23.3844C9.44979 23.3528 9.42181 23.3123 9.40624 23.2671C9.39066 23.2219 9.38804 23.1736 9.39865 23.1272Z" fill="#CD7A4E"/>
<path d="M32.2271 23.4191L32.179 23.5777C32.1624 23.6328 32.1238 23.6632 32.0632 23.6688C31.8519 23.6846 31.6684 23.6424 31.5128 23.5423C29.9827 22.5534 28.6397 21.7771 26.7444 22.1619C24.9133 22.2344 24.9649 19.7386 27.4534 20.0441C29.2417 20.2618 31.837 21.5662 32.2271 23.4191Z" fill="#CD7A4E"/>
<path d="M13.6042 24.7202C11.4774 24.2645 10.6882 26.6844 10.8735 28.1998C10.9531 28.8512 11.2476 29.4536 11.757 30.0071C11.1668 29.7832 10.7162 29.2314 10.4051 28.3516C9.91877 26.9713 10.3302 25.7411 11.5646 24.9429C12.0296 24.6425 13.5543 24.035 13.6042 24.7202Z" fill="#FEFEFE"/>
<path d="M30.6917 25.2366C30.9517 25.5482 31.1156 25.9166 31.1833 26.3419C31.2391 26.6996 31.2403 27.2289 31.1869 27.9298C31.0491 28.058 30.8633 28.1492 30.6294 28.2032C30.8093 26.9527 30.3889 25.4289 29.1473 24.8822C28.9823 24.8091 28.8142 24.7326 28.6432 24.6527C29.2334 24.5582 29.9162 24.7528 30.6917 25.2366Z" fill="#FEFEFE"/>
<path d="M13.6042 24.7202C16.7641 25.9757 15.1539 31.9443 11.757 30.0071C11.2476 29.4536 10.9531 28.8512 10.8735 28.1998C10.6882 26.6844 11.4774 24.2645 13.6042 24.7202ZM13.2725 28.085C13.3421 28.0746 13.4086 28.05 13.4682 28.0124C13.5278 27.9748 13.5794 27.925 13.62 27.8658C13.6607 27.8067 13.6895 27.7393 13.7049 27.6676C13.7203 27.5959 13.722 27.5212 13.7099 27.4479C13.6978 27.3745 13.6721 27.3039 13.6343 27.2401C13.5964 27.1763 13.5472 27.1205 13.4895 27.076C13.4317 27.0314 13.3665 26.9989 13.2976 26.9804C13.2287 26.9619 13.1574 26.9576 13.0879 26.9679C13.0183 26.9783 12.9518 27.0029 12.8922 27.0405C12.8326 27.0781 12.781 27.1279 12.7404 27.1871C12.6997 27.2463 12.6709 27.3136 12.6555 27.3853C12.6401 27.457 12.6384 27.5317 12.6505 27.605C12.6626 27.6784 12.6883 27.749 12.7262 27.8128C12.764 27.8766 12.8132 27.9324 12.8709 27.977C12.9287 28.0215 12.9939 28.054 13.0628 28.0725C13.1317 28.0911 13.203 28.0953 13.2725 28.085Z" fill="#141319"/>
<path d="M28.6432 24.6527C28.8142 24.7326 28.9823 24.8091 29.1473 24.8822C30.3889 25.4289 30.8093 26.9527 30.6294 28.2032C30.3729 30.4526 27.5104 31.3115 26.4826 28.9507C25.7772 27.3273 26.2955 24.6375 28.6432 24.6527ZM28.9122 27.4758C28.9122 27.3344 28.8529 27.1988 28.7474 27.0988C28.6418 26.9988 28.4986 26.9426 28.3494 26.9426C28.2001 26.9426 28.0569 26.9988 27.9513 27.0988C27.8458 27.1988 27.7865 27.3344 27.7865 27.4758C27.7865 27.6173 27.8458 27.7529 27.9513 27.8529C28.0569 27.9529 28.2001 28.0091 28.3494 28.0091C28.4986 28.0091 28.6418 27.9529 28.7474 27.8529C28.8529 27.7529 28.9122 27.6173 28.9122 27.4758Z" fill="#141319"/>
<path d="M36.7426 27.356C36.9296 26.5983 37.3304 25.8862 38.1302 25.574C38.1812 25.5538 38.2323 25.5543 38.2834 25.5757C39.0731 25.902 39.4637 26.4476 39.4554 27.2126C39.4388 28.7595 38.7227 29.8198 37.3072 30.3935C37.027 30.5072 36.7622 30.4565 36.5128 30.2417C35.9588 29.7624 36.5858 27.9872 36.7426 27.356Z" fill="#FC8E79"/>
<path d="M2.5052 26.1529C3.0752 25.4846 3.77166 25.6534 4.15998 26.3756C4.73176 27.4371 4.96688 28.4377 5.29463 29.5684C5.60813 30.6484 4.24014 30.5859 3.58464 30.186C2.23267 29.3608 1.36698 27.4843 2.5052 26.1529Z" fill="#FBA98B"/>
<path d="M28.3494 28.0091C28.6602 28.0091 28.9122 27.7703 28.9122 27.4758C28.9122 27.1813 28.6602 26.9426 28.3494 26.9426C28.0385 26.9426 27.7865 27.1813 27.7865 27.4758C27.7865 27.7703 28.0385 28.0091 28.3494 28.0091Z" fill="#FEFEFE"/>
<path d="M12.6505 27.605C12.7015 27.9135 12.98 28.1284 13.2725 28.085C13.5651 28.0416 13.7609 27.7563 13.7099 27.4479C13.6589 27.1394 13.3804 26.9245 13.0879 26.9679C12.7953 27.0113 12.5995 27.2966 12.6505 27.605Z" fill="#FEFEFE"/>
<path d="M20.2322 31.9849C21.2332 31.4668 21.9226 30.4745 21.1691 29.4806C21.3401 29.2038 21.732 29.5059 21.8852 29.6814C23.4367 31.4516 20.7256 33.2927 20.2322 31.9849Z" fill="#FBA98B"/>
<path d="M31.2884 30.461L34.0618 30.5117C34.1188 30.5128 34.1473 30.5404 34.1473 30.5944C34.142 32.3274 32.7918 33.2336 31.2047 33.7736C29.8901 33.9204 28.4954 34.1651 27.5923 33.0378C27.1238 32.4523 27.3358 31.8448 27.8933 31.3824C28.8315 30.6028 29.9632 30.2957 31.2884 30.461Z" fill="#FC8E79"/>
<path d="M11.5967 34.2849C10.5303 34.3603 9.62901 34.1544 8.89276 33.6673C8.09298 33.1391 7.59243 31.5191 8.64871 30.9099C10.297 30.389 11.7243 30.6056 12.9308 31.5596C14.6533 32.9231 13.1784 34.1229 11.5967 34.2849Z" fill="#FBA98B"/>
<path d="M19.6586 34.2984C21.3936 34.4413 23.1885 34.2877 25.0433 33.8377C25.1668 33.8073 25.2405 33.8523 25.2642 33.9727C25.4316 34.8401 24.3273 35.8307 23.6076 36.1834C22.4409 35.4088 19.1438 35.019 18.2229 36.288C17.5057 35.802 17.0841 35.2789 16.9582 34.7186C16.8573 34.488 16.808 34.2607 16.8104 34.0369C16.8107 34.0087 16.8175 33.9809 16.8303 33.9555C16.8431 33.9301 16.8615 33.9076 16.8844 33.8896C16.9073 33.8716 16.9341 33.8586 16.9628 33.8514C16.9915 33.8442 17.0216 33.843 17.0509 33.8479L19.6586 34.2984Z" fill="#2D242F"/>
<path d="M23.6076 36.1834C23.3108 36.4871 22.8714 36.6902 22.2895 36.7926C20.7137 37.0704 19.3582 36.9022 18.2229 36.288C19.1438 35.019 22.4409 35.4088 23.6076 36.1834Z" fill="#FC8E79"/>
<path d="M23.9568 39.0369L25.763 39.2715C25.8782 39.6686 25.9275 40.0742 25.9108 40.4882C25.8414 42.1908 22.815 42.962 21.4274 42.9941C21.3431 42.957 21.2534 42.9463 21.1584 42.962C20.5385 42.1976 19.1527 40.6738 18.1232 40.5439C18.0709 40.5371 18.0264 40.5152 17.9896 40.478C17.8993 40.388 17.7913 40.356 17.6654 40.3819C17.5989 40.3954 17.5585 40.3706 17.5443 40.3076C17.4374 39.8351 16.9725 40.1962 16.805 40.4274C16.7326 39.9167 16.7504 39.5055 16.8585 39.1939L17.8489 39.0842C20.4905 39.258 21.8816 39.1314 23.9568 39.0369Z" fill="#FBA98B"/>
<path d="M16.8585 39.1939C16.7504 39.5055 16.7326 39.9167 16.805 40.4274C17.7847 41.8393 19.2359 42.6842 21.1584 42.962C21.2534 42.9463 21.3431 42.957 21.4274 42.9941C21.5177 43.3147 21.6803 43.5814 21.9155 43.794C21.9265 43.804 21.9341 43.817 21.9373 43.8312C21.9405 43.8453 21.9391 43.8601 21.9334 43.8736C21.9276 43.887 21.9177 43.8985 21.905 43.9066C21.8923 43.9146 21.8773 43.9189 21.862 43.9188C19.0726 43.8665 15.8556 42.9924 15.3569 39.9802C15.3486 39.9352 15.3207 39.9127 15.2732 39.9127C15.2411 39.9127 15.2126 39.9307 15.1877 39.9667C15.1568 40.0117 15.1479 40.0601 15.161 40.1119C15.8948 43.2337 19.037 44.0353 22.0223 44.1281C22.0888 44.1303 22.1381 44.1585 22.1702 44.2125C22.5692 44.8807 22.6297 46.0299 22.5977 46.683C19.7085 46.7898 16.8579 46.5452 14.0459 45.9489C12.856 45.6958 11.5949 45.2891 10.3783 44.9195L9.20266 44.5534C9.15008 44.537 9.10614 44.5022 9.07994 44.456C9.05374 44.4098 9.0473 44.3558 9.06195 44.3053C10.0149 41.0062 13.4866 39.4926 16.8585 39.1939Z" fill="#6AC38D"/>
<path d="M25.763 39.2715L28.0465 39.776C30.4156 40.7109 32.0223 41.6525 32.8399 44.0927C32.9788 44.5061 32.6564 44.4926 32.4106 44.5888C29.272 45.8285 26.0011 46.5266 22.5977 46.683C22.6297 46.0299 22.5692 44.8807 22.1702 44.2125C22.1381 44.1585 22.0888 44.1303 22.0223 44.1281C19.037 44.0353 15.8948 43.2337 15.161 40.1119C15.1479 40.0601 15.1568 40.0117 15.1877 39.9667C15.2126 39.9307 15.2411 39.9127 15.2732 39.9127C15.3207 39.9127 15.3486 39.9352 15.3569 39.9802C15.8556 42.9924 19.0726 43.8665 21.862 43.9188C21.8773 43.9189 21.8923 43.9146 21.905 43.9066C21.9177 43.8985 21.9276 43.887 21.9334 43.8736C21.9391 43.8601 21.9405 43.8453 21.9373 43.8312C21.9341 43.817 21.9265 43.804 21.9155 43.794C21.6803 43.5814 21.5177 43.3147 21.4274 42.9941C22.815 42.962 25.8414 42.1908 25.9108 40.4882C25.9275 40.0742 25.8782 39.6686 25.763 39.2715Z" fill="#5AAA71"/>
<path d="M21.1584 42.962C19.2359 42.6842 17.7847 41.8393 16.805 40.4274C16.9725 40.1962 17.4374 39.8351 17.5443 40.3076C17.5585 40.3706 17.5989 40.3954 17.6654 40.3819C17.7913 40.356 17.8993 40.388 17.9896 40.478C18.0264 40.5152 18.0709 40.5371 18.1232 40.5439C19.1527 40.6738 20.5385 42.1976 21.1584 42.962Z" fill="#FFC7A7"/>
</svg>
